# xmcd
#
# Track frame offsets: 
#        150
#        10153
#        28744
#        42058
#        60963
#        74880
#        84834
#        97064
#        110538
#        126087
#        140776
#        156887
#        173699
#        187501
#        199935
#        215625
#        226998
#        239464
#        256725
#        269856
#        282751
#        296576
#        313149
#        331445
#
# Disc length: 4606 seconds
#
# Revision: 0
# Processed by: cddbd v1.5.2PL0 Copyright (c) Steve Scherf et al.
# Submitted via: ExactAudioCopy v1.0b3
#
DISCID=6511fc18
DTITLE=Yngve Stoor - Min Hula CD2
DYEAR=2005
DGENRE=Swing
TTITLE0=Godnatt Soderhavsflicka
TTITLE1=Den Stora Vinden
TTITLE2=De Tusen Oarnas Sang
TTITLE3=Vaya Con Dios
TTITLE4=Jul I Frammande Land
TTITLE5=Svunnen Lycka
TTITLE6=Langtan Till Hawaii
TTITLE7=Dance in the Moonlight
TTITLE8=Blomman Fran Hawaii
TTITLE9=Valkommen Till Samoa
TTITLE10=Pago Pago I Mansken
TTITLE11=Anglakoren
TTITLE12=Torterade Varld
TTITLE13=Moa Kaloha
TTITLE14=Gyllne Morgon
TTITLE15=Hula Hula
TTITLE16=Minnenas Tango
TTITLE17=Farval Till Rarotonga
TTITLE18=Lourdes de la Cruz
TTITLE19=Across the Sea
TTITLE20=Paradison
TTITLE21=Den Ensamma Klippan
TTITLE22=Skank Mej En Lilja
TTITLE23=The Coral Sea by Night
EXTD=
EXTT0=
EXTT1=
EXTT2=
EXTT3=
EXTT4=
EXTT5=
EXTT6=
EXTT7=
EXTT8=
EXTT9=
EXTT10=
EXTT11=
EXTT12=
EXTT13=
EXTT14=
EXTT15=
EXTT16=
EXTT17=
EXTT18=
EXTT19=
EXTT20=
EXTT21=
EXTT22=
EXTT23=
PLAYORDER=
